<svg width="64" height="64" viewBox="0 0 64 64" fill="none" xmlns="http://www.w3.org/2000/svg">
  <defs>
    <radialGradient id="space" cx="0" cy="0" r="1" gradientUnits="userSpaceOnUse" gradientTransform="translate(27 24) rotate(53) scale(47)">
      <stop stop-color="#102B36"/><stop offset="0.52" stop-color="#090B20"/><stop offset="1" stop-color="#010204"/>
    </radialGradient>
    <linearGradient id="q" x1="15" y1="12" x2="51" y2="52" gradientUnits="userSpaceOnUse">
      <stop stop-color="#88FFE4"/><stop offset="0.54" stop-color="#59D9FF"/><stop offset="1" stop-color="#8E6BFF"/>
    </linearGradient>
    <filter id="glow" x="4" y="3" width="57" height="58" filterUnits="userSpaceOnUse" color-interpolation-filters="sRGB"><feGaussianBlur stdDeviation="2.2"/></filter>
  </defs>
  <rect x="1" y="1" width="62" height="62" rx="16" fill="url(#space)" stroke="#25464D" stroke-width="2"/>
  <g fill="#DFFFF8"><circle cx="11" cy="15" r="1"/><circle cx="52" cy="12" r="0.8"/><circle cx="55" cy="35" r="1.1"/><circle cx="9" cy="43" r="0.7"/><circle cx="20" cy="8" r="0.7"/><circle cx="44" cy="55" r="0.8"/><circle cx="16" cy="54" r="0.55"/><circle cx="57" cy="52" r="0.55"/><circle cx="47" cy="23" r="0.6"/></g>
  <path d="M32 13C21.5 13 14 20.7 14 31C14 41.3 21.5 49 32 49C35.8 49 39.1 48 42 46.1L49.2 53.2L53 49.4L45.8 42.3C48.5 39.2 50 35.3 50 31C50 20.7 42.5 13 32 13ZM32 19C39.1 19 44 24 44 31C44 38 39.1 43 32 43C24.9 43 20 38 20 31C20 24 24.9 19 32 19Z" fill="url(#q)" opacity="0.34" filter="url(#glow)"/>
  <path d="M32 13C21.5 13 14 20.7 14 31C14 41.3 21.5 49 32 49C35.8 49 39.1 48 42 46.1L49.2 53.2L53 49.4L45.8 42.3C48.5 39.2 50 35.3 50 31C50 20.7 42.5 13 32 13ZM32 19C39.1 19 44 24 44 31C44 38 39.1 43 32 43C24.9 43 20 38 20 31C20 24 24.9 19 32 19Z" fill="url(#q)"/>
</svg>
